<svg width="256" height="256" viewBox="0 0 256 256" fill="none" xmlns="http://www.w3.org/2000/svg">
<rect width="256" height="256" rx="24" fill="#050505"/>
<path d="M128 138.667C133.891 138.667 138.667 133.891 138.667 128C138.667 122.109 133.891 117.333 128 117.333C122.109 117.333 117.333 122.109 117.333 128C117.333 133.891 122.109 138.667 128 138.667Z" stroke="#F5F5F5" stroke-width="21.3333" stroke-linecap="round" stroke-linejoin="round"/>
<path d="M215.467 215.467C237.227 193.813 215.68 136.96 167.467 88.5333C119.04 40.32 62.1867 18.7733 40.5333 40.5333C18.7733 62.1867 40.32 119.04 88.5333 167.467C136.96 215.68 193.813 237.227 215.467 215.467Z" stroke="#F5F5F5" stroke-width="21.3333" stroke-linecap="round" stroke-linejoin="round"/>
<path d="M167.467 167.467C215.68 119.04 237.227 62.1867 215.467 40.5333C193.813 18.7733 136.96 40.32 88.5333 88.5333C40.32 136.96 18.7733 193.813 40.5333 215.467C62.1867 237.227 119.04 215.68 167.467 167.467Z" stroke="#F5F5F5" stroke-width="21.3333" stroke-linecap="round" stroke-linejoin="round"/>
</svg>
